<mxfile host="app.diagrams.net" modified="2023-10-26T05:33:13.610Z" agent="Mozilla/5.0 (Macintosh; Intel Mac OS X 10_15_7) AppleWebKit/605.1.15 (KHTML, like Gecko) Version/17.0 Safari/605.1.15" version="22.0.8" etag="_BjtiuvmRZcA8RwPAwHX" type="github">
  <diagram name="第 1 页" id="5-1GDMFkHLrM65EXfdin">
    <mxGraphModel>
      <root>
        <mxCell id="0" />
        <mxCell id="1" parent="0" />
      </root>
    </mxGraphModel>
  </diagram>
</mxfile>
